<?xml version="1.0" encoding="UTF-8"?>
<!DOCTYPE svg PUBLIC "-//W3C//DTD SVG 1.1//EN" "http://www.w3.org/Graphics/SVG/1.1/DTD/svg11.dtd">
<!-- Creator: CorelDRAW -->
<svg xmlns="http://www.w3.org/2000/svg" xml:space="preserve" width="38.0464mm" height="38.0464mm" style="shape-rendering:geometricPrecision; text-rendering:geometricPrecision; image-rendering:optimizeQuality; fill-rule:evenodd; clip-rule:evenodd"
viewBox="0 0 16.5252 16.5252"
 xmlns:xlink="http://www.w3.org/1999/xlink">
 <defs>
  <style type="text/css">
   <![CDATA[
    .fil2 {fill:none}
    .fil1 {fill:white}
    .fil0 {fill:#8BAA8A}
   ]]>
  </style>
   <clipPath id="id0">
    <path d="M8.2626 0c4.56252,0 8.2626,3.70008 8.2626,8.2626 0,4.56252 -3.70008,8.2626 -8.2626,8.2626 -4.56252,0 -8.2626,-3.70008 -8.2626,-8.2626 0,-4.56252 3.70008,-8.2626 8.2626,-8.2626z"/>
   </clipPath>
 </defs>
 <g id="Слой_x0020_1">
  <metadata id="CorelCorpID_0Corel-Layer"/>
  <path class="fil0" d="M8.2626 0c4.56252,0 8.2626,3.70008 8.2626,8.2626 0,4.56252 -3.70008,8.2626 -8.2626,8.2626 -4.56252,0 -8.2626,-3.70008 -8.2626,-8.2626 0,-4.56252 3.70008,-8.2626 8.2626,-8.2626z"/>
  <g style="clip-path:url(#id0)">
   <g id="_169930312">
    <path id="_1988918001" class="fil1" d="M5.38851 13.3311c0.011901,0.00143333 0.0233677,0.00395253 0.0343566,0.00751414l0.163747 -0.309991c-2.03168,-0.177082 -3.6262,-1.88266 -3.6262,-3.96017 0,-2.0822 0.00251919,-4.16457 0.00251919,-6.24681 0,-0.601175 0.478169,-1.09307 1.06262,-1.09307 0.584496,0 1.06266,0.491894 1.06266,1.09307l0 2.72594 0.0157667 2.34836c0.00547273,0.827033 -0.13469,1.78758 0.494674,2.44744 0.336529,0.352904 0.811354,0.572899 1.33739,0.572899 0.848664,0 1.56385,-0.572421 1.78055,-1.35207 0.100985,-0.363502 0.0575939,-0.747766 0.116491,-1.11974 0.126351,-0.797455 0.489939,-1.51608 1.01623,-2.08107 0.725223,-0.778561 1.75922,-1.26559 2.90676,-1.26559 1.09676,0 2.08989,0.444898 2.80873,1.16404l-1.50383 1.50748c-0.334271,-0.331795 -0.795587,-0.536935 -1.3049,-0.536935 -0.63084,0 -1.18797,0.314682 -1.52137,0.794892 -0.277893,0.40003 -0.302129,0.8041 -0.329927,1.27814 -0.0560303,0.952298 -0.447417,1.81469 -1.05784,2.47059 -0.519605,0.558348 -1.19788,0.966979 -1.96297,1.15422l-0.0506879 0.307037c0.078703,0.0274071 0.130564,0.106718 0.120313,0.192848 -0.0118576,0.0995081 -0.102201,0.170523 -0.201666,0.158666 -0.0116838,-0.0013899 -0.0230202,-0.00390909 -0.0338788,-0.0073404l-0.285537 0.545362c0.0490374,0.0377444 0.0775303,0.0995515 0.0697121,0.165441 -0.011901,0.0995081 -0.102201,0.170567 -0.201666,0.158666 -0.0693646,-0.00825253 -0.124874,-0.054597 -0.148155,-0.115579l-0.514132 0.0993343c0.000130303,0.00820909 -0.000260606,0.0164616 -0.0012596,0.024801 -0.0118576,0.0995081 -0.102114,0.170567 -0.201666,0.158709 -0.0635444,-0.00764444 -0.115492,-0.0472131 -0.141639,-0.100768l-0.233981 0.0675404c0.00143333,0.0134212 0.00143333,0.0271899 -0.000260606,0.0411323 -0.0118576,0.0995081 -0.102114,0.170567 -0.201666,0.158709 -0.0994646,-0.0118576 -0.170523,-0.102158 -0.158666,-0.201709 0.0118576,-0.0994646 0.102201,-0.170523 0.201709,-0.158622 0.063501,0.00755758 0.115405,0.0470828 0.141596,0.100681l0.233981 -0.0675404c-0.00143333,-0.0133778 -0.0013899,-0.0271465 0.000260606,-0.0410889 0.00217172,-0.018199 0.00699293,-0.0354424 0.0139859,-0.0514263l-0.538933 -0.357725c-0.0380919,0.0401333 -0.0939919,0.0623717 -0.153149,0.0552919 -0.0385263,-0.00456061 -0.0728394,-0.0209354 -0.0996818,-0.0450848l-0.488159 0.38409c0.0171131,0.0317505 0.0249747,0.0689303 0.0203707,0.107457 -0.011901,0.0995515 -0.102158,0.17061 -0.201666,0.158709 -0.0995081,-0.0118576 -0.170567,-0.102201 -0.158666,-0.201709 0.0118141,-0.0994646 0.102158,-0.17048 0.201666,-0.158666 0.0385697,0.00460404 0.0728394,0.0209788 0.0996818,0.0451283l0.488159 -0.38409c-0.0171566,-0.0317939 -0.0250182,-0.0689303 -0.0204141,-0.1075 0.00608081,-0.0509919 0.0327929,-0.0945566 0.070798,-0.123267l-0.122007 -0.237456c-0.0237152,0.00738384 -0.0492111,0.0100768 -0.0754455,0.00694949 -0.0995081,-0.011901 -0.17061,-0.102201 -0.158709,-0.201709 0.0118576,-0.0994646 0.102201,-0.170523 0.201709,-0.158666 0.0994646,0.0118576 0.170523,0.102201 0.158709,0.201709 -0.00612424,0.0509919 -0.0328364,0.0945566 -0.0708414,0.123267l0.121964 0.237369c0.0236717,-0.00738384 0.0492545,-0.0100333 0.0754889,-0.00686263 0.051904,0.00616768 0.0960333,0.0336616 0.124743,0.0726657l0.426742 -0.21209c-0.00686263,-0.0230202 -0.00925152,-0.0477778 -0.00621111,-0.0731434 0.011901,-0.0994646 0.102201,-0.170523 0.201709,-0.158666zm0.265905 -0.297091l-0.1763 0.333793c0.0486899,0.0377444 0.0769222,0.0993778 0.069104,0.164964 -0.00165051,0.0134646 -0.00469091,0.0264515 -0.00899091,0.0387434l0.300696 0.168612c0.0290141,-0.0354859 0.0710586,-0.0594616 0.117794,-0.0653687l0.0295788 -0.631014 -0.0502535 0.000347475c-0.0947303,0 -0.188592,-0.00347475 -0.281628,-0.0100768zm0.39434 0.00851313l-0.0297091 0.63514c0.0408717,0.00907778 0.0759667,0.0316636 0.101028,0.0623283l0.482165 -0.270987c-0.00903434,-0.0254091 -0.0124657,-0.0532505 -0.00903434,-0.0818737 0.0109455,-0.0916899 0.0885192,-0.15923 0.178515,-0.159969l0.0464313 -0.281411c-0.248444,0.0563343 -0.505706,0.0894313 -0.769396,0.0967717zm-0.723573 1.27058c0.0380919,-0.0400899 0.0940354,-0.0623283 0.153149,-0.0552919 0.0693212,0.00825253 0.124874,0.0546404 0.148111,0.115622l0.514089 -0.0993778c-0.000130303,-0.00816566 0.000260606,-0.0164616 0.0012596,-0.024801 0.011901,-0.0995081 0.102244,-0.170523 0.201709,-0.158666 0.0116838,0.0013899 0.0230202,0.00386566 0.0338354,0.00729697l0.285537 -0.545362c-0.0110758,-0.00855657 -0.0211525,-0.0183293 -0.0299697,-0.029101l-0.482208 0.270987c0.00899091,0.0254525 0.0124657,0.0532939 0.00903434,0.0818737 -0.011901,0.0995081 -0.102244,0.170567 -0.201709,0.158709 -0.0994646,-0.011901 -0.170523,-0.102244 -0.158666,-0.201709 0.00160707,-0.0134646 0.00464747,-0.0264515 0.00894747,-0.0387l-0.300696 -0.168612c-0.0379616,0.0464747 -0.0981182,0.0731434 -0.162054,0.065499 -0.051904,-0.00621111 -0.0959899,-0.0337051 -0.1247,-0.0726657l-0.426829 0.212046c0.00686263,0.0230202 0.00925152,0.0477778 0.00621111,0.0731434 -0.00217172,0.0181556 -0.00699293,0.035399 -0.0139859,0.0513394l0.538933 0.357769zm4.55457 -3.55944c-0.196323,0.458493 -0.469916,0.875767 -0.804274,1.23497 -0.00230202,0.00256263 -0.00469091,0.00508182 -0.00703636,0.00764444 0.707328,0.650516 1.6512,1.04781 2.68763,1.04781 1.09676,0 2.08989,-0.444898 2.80873,-1.16404l-1.50383 -1.50748c-0.334271,0.331795 -0.795587,0.536935 -1.3049,0.536935 -0.700248,0 -1.30963,-0.387738 -1.6231,-0.959204 -0.0582889,0.278762 -0.143681,0.54749 -0.253222,0.803362zm-5.46339 -2.73658c0.333663,-0.481253 0.889926,-0.796456 1.51968,-0.796456 0.702768,0 1.31398,0.392473 1.62644,0.970106 0.158405,-0.760709 0.528248,-1.47086 1.05828,-2.03994 0.00243232,-0.00260606 0.00482121,-0.00516869 0.00716667,-0.00773131 -0.70811,-0.652036 -1.65355,-1.05029 -2.69189,-1.05029 -0.544015,0 -1.06262,0.109368 -1.53493,0.307298l0.0152455 2.61701zm4.34065 0.0110323c0.00694949,0.000825253 0.0136818,0.00199798 0.0203273,0.00360505l0.293746 -0.684352c-0.0558566,-0.0364848 -0.0894313,-0.102635 -0.0809616,-0.173433 0.0110323,-0.0928626 0.0904737,-0.160924 0.18186,-0.159925l0.100029 -0.542929c-0.0769222,-0.0284061 -0.127306,-0.106718 -0.117142,-0.191719 0.0118576,-0.0994646 0.102158,-0.17048 0.201666,-0.158666 0.0995081,0.0118576 0.170523,0.102201 0.158666,0.201709 -0.00321414,0.0271465 -0.0122919,0.0520778 -0.0258,0.0738818l0.53737 0.477691c0.0366152,-0.029101 0.0843495,-0.0440859 0.134386,-0.0380919 0.0995081,0.0118141 0.170567,0.102158 0.158666,0.201666 -0.0118576,0.0995081 -0.102158,0.170567 -0.201666,0.158666 -0.0145939,-0.00173737 -0.0285364,-0.00521212 -0.0417404,-0.0100768l-0.419706 0.717883c0.0449545,0.0380485 0.0704939,0.0972061 0.0629798,0.160012 -0.0118576,0.0995081 -0.102201,0.170567 -0.201709,0.158709 -0.0684525,-0.00816566 -0.123527,-0.0535545 -0.147286,-0.113537l-0.453759 0.0935576c0.000260606,0.00890404 -0.000130303,0.0179384 -0.00121616,0.0270596 -0.00425657,0.0351818 -0.0182424,0.0668455 -0.039004,0.0924717l0.301304 0.34413c0.0335313,-0.0203707 0.0738384,-0.0301434 0.115796,-0.0251051 0.0995081,0.0118576 0.170523,0.102158 0.158666,0.201622 -0.00764444,0.0640222 -0.0477778,0.116317 -0.10194,0.142247l0.0502535 0.17921c0.0129434,-0.0012596 0.0261909,-0.00121616 0.0396556,0.000390909 0.0994646,0.0118576 0.170567,0.102158 0.158709,0.201709 -0.0118576,0.0994646 -0.102201,0.170523 -0.201709,0.158666 -0.0995081,-0.0118576 -0.170567,-0.102158 -0.158666,-0.201709 0.00760101,-0.0639788 0.0477778,-0.11623 0.101854,-0.142204l-0.0501667 -0.179167c-0.0129434,0.00130303 -0.0262778,0.00121616 -0.039699,-0.000390909 -0.0995081,-0.011901 -0.170523,-0.102244 -0.158666,-0.201709 0.0041697,-0.0351818 0.018199,-0.0668455 0.0389606,-0.0924717l-0.301261 -0.344174c-0.0221515,0.0135081 -0.0473,0.0223687 -0.0739253,0.0253222l-0.0502101 0.829292c0.0886061,0.0208919 0.149197,0.105459 0.138208,0.197974 -0.00599394,0.0502101 -0.0319242,0.0931232 -0.0689737,0.121877l0.266643 0.503534c0.0242798,-0.00790505 0.050601,-0.0108586 0.0775737,-0.00764444 0.0995081,0.011901 0.170567,0.102201 0.158709,0.201666 -0.0113798,0.0957293 -0.0953384,0.165094 -0.190242,0.159752l-0.116361 0.500581c0.0724051,0.0307081 0.11901,0.106501 0.109281,0.188548 -0.011901,0.0995081 -0.102244,0.170523 -0.201709,0.158709 -0.0292747,-0.00351818 -0.0559869,-0.0138121 -0.0789202,-0.029101l-0.929756 0.978836c0.0267121,0.0359202 0.0402202,0.0817 0.0344869,0.129652 -0.011901,0.0994646 -0.102244,0.17048 -0.201709,0.158622 -0.0839152,-0.0099899 -0.147633,-0.0757929 -0.158362,-0.155886l-0.405981 -0.0157232c-0.0193717,0.0906475 -0.105068,0.15328 -0.198886,0.142074 -0.0964677,-0.0115101 -0.16631,-0.0966848 -0.159621,-0.192544l-0.550053 -0.135472c-0.0312727,0.0711889 -0.106371,0.116795 -0.187636,0.107066 -0.00512525,-0.000564646 -0.0102071,-0.00143333 -0.015202,-0.00247576l-0.0927758 0.234068c0.0585061,0.0359202 0.0939485,0.103591 0.0852616,0.17617 -0.011901,0.0995515 -0.102201,0.170567 -0.201666,0.158709 -0.0994646,-0.011901 -0.170567,-0.102201 -0.158709,-0.201709 0.0118576,-0.0994646 0.102201,-0.170523 0.201666,-0.158666 0.00516869,0.000608081 0.0102505,0.0015202 0.0152455,0.00251919l0.0927758 -0.234111c-0.0584626,-0.0359202 -0.0939051,-0.103547 -0.0852616,-0.17617 0.011901,-0.0994646 0.102201,-0.170523 0.201709,-0.158666 0.0265818,0.00312727 0.0511657,0.011901 0.0726657,0.0250182l0.551833 -0.631405c-0.0297091,-0.036702 -0.0451283,-0.0849576 -0.0390909,-0.135559 0.011901,-0.0995081 0.102201,-0.170523 0.201666,-0.158666 0.0544232,0.00647172 0.100333,0.0364848 0.128826,0.0785293l1.51508 -1.54765c-0.0256697,-0.0356162 -0.0384828,-0.0805273 -0.0328798,-0.12748 0.0101636,-0.0853051 0.0780081,-0.149675 0.159838,-0.158796l0.0502101 -0.829292c-0.0886061,-0.0209354 -0.14924,-0.105502 -0.138208,-0.198017 0.0118576,-0.0995081 0.102201,-0.170567 0.201666,-0.158709zm0.077704 0.0282323c0.0314465,0.0205444 0.0558131,0.0504707 0.0695818,0.0853485l0.453802 -0.093601c-0.00030404,-0.00890404 0.000130303,-0.0179818 0.00121616,-0.0270596 0.0118576,-0.0995081 0.102201,-0.170523 0.201709,-0.158666 0.0145939,0.00173737 0.0285798,0.00516869 0.0417404,0.0100768l0.419663 -0.717839c-0.0237152,-0.0201101 -0.042001,-0.0460404 -0.0529465,-0.0753586l-0.617723 0.114319c8.68687e-005,0.00773131 -0.000347475,0.0154626 -0.00130303,0.0233242 -0.0118576,0.0995515 -0.102201,0.17061 -0.201666,0.158709 -0.00694949,-0.000825253 -0.0137253,-0.00204141 -0.0203273,-0.00364848l-0.293746 0.684395zm0.398597 -1.03113c0.0500364,0.018503 0.0889101,0.058202 0.107109,0.107022l0.617767 -0.114276c-8.68687e-005,-0.00777475 0.000347475,-0.0155495 0.0012596,-0.0234111 0.00325758,-0.0270596 0.0122919,-0.0520778 0.0258,-0.0738818l-0.53737 -0.477691c-0.0317505,0.0251919 -0.071797,0.0398727 -0.11458,0.0393949l-0.0999859 0.542842zm-2.09319 3.9702l1.78046 -0.741598c-0.0044303,-0.0195889 -0.00560303,-0.0403505 -0.00308384,-0.0614162 0.00595051,-0.0501667 0.0319242,-0.0930798 0.0688869,-0.12179l-0.266643 -0.503534c-0.0242364,0.00786162 -0.0505576,0.0107717 -0.0775303,0.00755758 -0.0302303,-0.00364848 -0.0578111,-0.0144636 -0.0812657,-0.0305778l-1.42082 1.45136zm-0.935141 0.940831c0.0279283,0.0345303 0.0432172,0.0792242 0.0399162,0.126524l0.550139 0.135472c0.0312727,-0.0712323 0.106371,-0.116882 0.187593,-0.107196 0.0253222,0.0030404 0.0488202,0.0111626 0.0695384,0.0231939l0.196758 -0.234502c-0.0311859,-0.0370929 -0.0475606,-0.0864778 -0.0413495,-0.138338 0.00421313,-0.0352253 0.0182424,-0.066802 0.039004,-0.0924717l-0.301304 -0.344174c-0.0335313,0.0204141 -0.0738384,0.0301 -0.115796,0.0251051 -0.0265818,-0.00317071 -0.0511657,-0.0119444 -0.0726657,-0.0250182l-0.551833 0.631405zm1.34199 0.326496c0.0193717,-0.0906475 0.105024,-0.153323 0.198886,-0.142117 0.0292747,0.00343131 0.0560303,0.0137687 0.0790071,0.0290576l0.929669 -0.97888 -0.00334444 -0.00464747 -1.18806 0.549966c0.0058202,0.0216303 0.00768788,0.0446939 0.00486465,0.0682788 -0.011901,0.0994646 -0.102244,0.170523 -0.201709,0.158666 -0.0253222,-0.0030404 -0.0487768,-0.0111192 -0.0694949,-0.0231505l-0.196801 0.234502c0.021804,0.0259737 0.036398,0.0579414 0.0410455,0.092602l0.405937 0.0157232zm-0.51891 -1.15296c0.00438687,0.0196323 0.0056899,0.0403071 0.00312727,0.0614596 -0.0041697,0.0351818 -0.0181556,0.0667586 -0.0389606,0.0924283l0.301261 0.344174c0.0334879,-0.0204141 0.0738384,-0.0301434 0.115796,-0.0251485 0.0536414,0.00638485 0.0989869,0.0355727 0.127567,0.0767919l1.18806 -0.549922c-0.00573333,-0.0216303 -0.00760101,-0.0447374 -0.00477778,-0.0682788 0.0113798,-0.0957293 0.0953384,-0.165094 0.190199,-0.159752l0.116404 -0.500581c-0.0341828,-0.0145071 -0.0625889,-0.039004 -0.0820475,-0.0694949l-1.91663 0.798323z"/>
   </g>
  </g>
  <path class="fil2" d="M8.2626 0c4.56252,0 8.2626,3.70008 8.2626,8.2626 0,4.56252 -3.70008,8.2626 -8.2626,8.2626 -4.56252,0 -8.2626,-3.70008 -8.2626,-8.2626 0,-4.56252 3.70008,-8.2626 8.2626,-8.2626z"/>
 </g>
</svg>
